<?xml version="1.0" standalone="no"?>
<!DOCTYPE svg PUBLIC "-//W3C//DTD SVG 20010904//EN"
 "http://www.w3.org/TR/2001/REC-SVG-20010904/DTD/svg10.dtd">
<svg version="1.0" xmlns="http://www.w3.org/2000/svg"
 width="3506.000000pt" height="1081.000000pt" viewBox="0 0 3506.000000 1081.000000"
 preserveAspectRatio="xMidYMid meet">

<g transform="translate(0.000000,1081.000000) scale(0.100000,-0.100000)"
fill="#000000" stroke="none">
<path d="M5905 10800 c-687 -38 -1354 -292 -1900 -726 -60 -48 -173 -149 -249
-223 -496 -485 -823 -1087 -955 -1761 -46 -232 -55 -343 -56 -640 0 -305 11
-428 61 -675 70 -347 226 -761 364 -965 20 -30 51 -84 69 -120 30 -58 72 -122
201 -302 59 -82 126 -155 175 -188 23 -16 73 -61 111 -101 38 -39 97 -91 132
-116 34 -25 62 -48 62 -53 0 -27 186 -160 202 -144 3 2 11 -2 18 -11 17 -20
30 -19 30 3 -1 23 -19 44 -54 62 -16 8 -60 50 -98 93 -78 88 -85 116 -41 167
26 32 28 32 94 28 53 -4 81 -13 136 -43 37 -20 83 -50 101 -66 61 -54 112 -70
112 -36 0 7 -29 42 -65 77 -85 85 -96 122 -63 215 20 55 45 73 120 86 102 18
230 -8 340 -71 10 -6 28 -10 41 -10 52 0 230 -99 304 -169 12 -12 26 -21 30
-21 5 0 32 -16 60 -35 29 -19 58 -35 65 -35 8 0 22 -6 33 -14 11 -7 47 -21 80
-31 32 -9 73 -28 90 -41 16 -13 35 -28 41 -33 6 -5 21 -12 35 -16 23 -7 140
-64 203 -98 17 -9 70 -18 128 -23 73 -5 105 -11 122 -25 13 -10 51 -25 83 -33
33 -7 71 -21 85 -30 15 -9 56 -18 104 -22 43 -3 114 -15 156 -26 67 -19 84
-20 128 -10 41 10 86 9 225 -4 187 -18 302 -13 312 12 3 9 20 14 44 14 21 0
61 9 89 20 32 13 74 20 114 20 118 0 191 22 361 108 27 14 115 54 195 88 155
67 261 135 475 307 265 212 434 395 610 659 219 329 325 554 400 848 82 325
107 804 60 1170 -108 846 -525 1613 -1175 2159 -655 550 -1488 828 -2345 781z"/>
<path d="M31607 7738 c-13 -20 -893 -1514 -1970 -3343 -165 -280 -307 -520
-315 -532 l-14 -23 520 0 521 0 633 1110 c348 610 636 1110 639 1110 3 0 290
-499 639 -1110 l633 -1110 519 0 c286 0 517 3 515 8 -12 20 -2170 3683 -2233
3790 -71 120 -73 123 -87 100z"/>
<path d="M20360 7710 c0 -11 6 -20 14 -20 28 0 96 -91 119 -159 l22 -66 3
-1467 2 -1466 -92 37 c-360 147 -770 180 -1157 95 -677 -151 -1152 -620 -1284
-1269 -19 -95 -22 -140 -21 -335 0 -248 13 -335 75 -522 224 -672 873 -1107
1652 -1108 835 0 1517 496 1692 1232 40 172 48 253 42 461 -5 209 -23 316 -78
482 -86 258 -251 504 -457 680 l-81 70 289 3 290 2 2 778 3 777 513 3 512 2 0
380 0 380 -512 2 -513 3 -3 523 -2 522 -515 0 c-508 0 -515 0 -515 -20z m-432
-3795 c319 -77 546 -288 633 -586 30 -106 38 -334 14 -450 -54 -269 -206 -466
-449 -584 -145 -70 -239 -90 -436 -89 -135 1 -179 4 -240 21 -275 76 -449 213
-561 439 -101 205 -119 469 -47 694 41 128 96 218 193 316 135 136 286 215
479 249 100 18 323 13 414 -10z"/>
<path d="M34000 7710 c0 -11 4 -20 10 -20 20 0 79 -63 100 -107 52 -111 50 21
50 -2994 l0 -2799 450 0 450 0 0 2970 0 2970 -530 0 c-523 0 -530 0 -530 -20z"/>
<path d="M23660 7290 l0 -340 1855 0 1855 0 0 -150 0 -150 -1855 0 -1855 0 0
-738 c0 -827 -3 -796 72 -873 47 -49 106 -76 168 -79 25 -2 1023 -2 2218 -1
l2172 1 0 360 0 360 -1885 0 -1885 0 0 160 0 160 1855 0 1855 0 0 815 0 815
-2285 0 -2285 0 0 -340z"/>
<path d="M16590 7155 l0 -385 860 -2 859 -3 -914 -1388 c-503 -763 -915 -1389
-915 -1392 0 -3 237 -4 527 -3 l527 3 766 1176 c421 646 887 1362 1035 1589
168 257 275 431 283 460 25 91 -12 208 -85 269 -78 65 15 61 -1535 61 l-1408
0 0 -385z"/>
<path d="M1520 5135 c-74 -13 -157 -24 -183 -24 -66 -1 -113 -23 -137 -64 -12
-19 -35 -41 -52 -48 -104 -43 -209 -229 -242 -430 -13 -78 -70 -117 -209 -142
-82 -15 -93 -20 -142 -64 -30 -27 -93 -72 -142 -102 -185 -115 -250 -159 -306
-211 -109 -100 -120 -149 -82 -377 26 -154 26 -162 9 -194 -22 -43 -30 -145
-15 -206 20 -82 123 -323 151 -353 15 -16 53 -79 85 -139 34 -65 72 -124 94
-143 24 -23 35 -40 33 -55 -2 -16 5 -26 28 -38 17 -9 40 -30 50 -48 11 -18 46
-50 77 -72 59 -41 107 -100 97 -117 -13 -20 7 -55 41 -71 19 -9 35 -20 35 -25
0 -5 23 -24 52 -42 l51 -33 18 22 18 22 41 -21 c56 -29 127 -96 151 -141 24
-48 66 -73 181 -109 95 -30 136 -57 162 -108 11 -21 38 -38 118 -72 57 -24
225 -99 373 -168 404 -186 590 -258 810 -313 62 -16 105 -34 150 -64 88 -59
151 -81 364 -126 183 -38 290 -68 343 -95 22 -12 35 -12 72 -2 47 13 64 8 265
-68 66 -25 78 -26 124 -17 45 9 59 8 113 -13 76 -28 186 -49 374 -69 80 -8
177 -23 215 -31 39 -9 117 -18 175 -19 103 -3 130 -9 370 -77 52 -14 106 -21
175 -22 88 0 108 3 167 27 l67 28 78 -20 c109 -28 250 -48 438 -61 l160 -12
135 33 c91 22 161 33 215 33 72 1 88 -3 149 -33 64 -31 74 -33 139 -28 124 11
195 60 212 147 4 25 17 43 41 59 47 32 93 25 180 -30 54 -34 78 -44 109 -43
94 3 178 49 204 112 15 36 59 62 105 62 20 0 73 -15 118 -34 105 -43 234 -61
325 -45 78 14 130 50 178 123 53 79 89 89 235 65 86 -15 130 -6 170 31 27 25
40 30 84 30 61 0 142 20 225 55 123 52 1203 584 1317 650 65 37 173 104 238
147 65 44 189 118 275 165 201 110 262 152 338 230 57 59 64 63 106 63 59 0
97 27 175 125 76 95 130 135 182 135 41 0 55 11 65 52 5 20 1 37 -15 63 -27
44 -21 64 40 129 26 28 57 72 69 99 29 59 55 73 153 79 90 6 123 23 146 77 11
26 31 46 66 67 139 82 319 222 686 534 182 155 318 261 453 354 100 70 125
103 96 131 -33 32 -71 22 -174 -47 -55 -37 -203 -120 -330 -186 -126 -65 -255
-134 -285 -152 -62 -38 -197 -137 -206 -151 -3 -5 -16 -6 -30 -3 -13 3 -50 3
-81 -1 -55 -7 -59 -9 -132 -86 -78 -83 -131 -126 -226 -184 l-58 -34 -29 24
c-35 29 -82 33 -118 8 -14 -9 -51 -40 -83 -69 -99 -89 -174 -108 -223 -59 -31
31 -27 49 13 53 25 3 34 11 54 55 49 106 142 195 280 268 40 22 70 48 94 80
29 41 50 55 157 108 155 76 192 105 192 154 0 20 -3 39 -7 43 -9 9 -115 -30
-217 -81 -67 -33 -100 -43 -156 -48 -49 -4 -109 -20 -194 -52 -68 -25 -144
-48 -169 -52 -31 -3 -70 -21 -121 -54 -41 -26 -142 -80 -225 -119 -82 -40
-258 -125 -390 -190 -326 -161 -497 -224 -1111 -409 -110 -33 -252 -81 -315
-106 -173 -70 -359 -119 -743 -196 -406 -81 -430 -86 -596 -142 -147 -49 -236
-55 -308 -23 l-42 19 32 28 c54 46 165 95 303 133 72 20 157 49 190 63 53 24
78 28 220 34 209 10 244 21 336 105 127 117 200 132 280 57 l26 -24 79 31
c154 62 250 138 296 237 13 27 24 50 25 52 1 1 12 -6 24 -18 44 -41 142 -19
388 89 163 71 216 120 248 230 8 30 20 61 25 68 18 22 53 13 111 -28 30 -22
65 -40 77 -40 11 0 51 24 88 53 113 91 186 135 422 258 213 110 372 202 430
249 21 17 23 21 10 30 -8 6 -43 9 -76 8 -47 -3 -72 -10 -103 -31 -22 -15 -50
-27 -62 -27 -25 0 -77 52 -85 86 -17 68 -186 17 -278 -85 -19 -21 -19 -21 11
-31 17 -6 36 -22 43 -35 28 -53 -55 -185 -116 -185 -16 0 -66 17 -111 38 l-82
39 -133 -28 c-74 -14 -153 -36 -175 -48 -51 -25 -87 -72 -102 -128 -7 -24 -16
-43 -21 -43 -5 0 -21 11 -35 24 -15 14 -39 27 -53 31 -36 7 -109 -16 -172 -54
l-52 -32 -76 12 c-71 11 -88 9 -214 -15 -95 -19 -153 -36 -191 -57 -87 -47
-185 -76 -401 -119 -393 -79 -970 -151 -1641 -205 -254 -20 -291 -19 -479 11
-127 20 -179 24 -246 19 -106 -8 -98 -8 -199 1 -70 6 -89 4 -116 -10 -31 -17
-33 -17 -128 23 -226 94 -520 171 -817 216 -75 11 -143 31 -245 69 -249 96
-458 154 -610 171 -86 9 -84 9 -196 90 -106 79 -160 101 -216 90 -30 -5 -54 6
-216 101 -412 242 -640 396 -752 509 -92 93 -169 137 -372 214 -153 58 -248
104 -256 125 -10 25 -88 76 -141 91 -28 8 -102 22 -165 30 -69 9 -141 25 -180
41 -95 38 -223 41 -401 9z m9480 -2145 c11 -11 20 -25 20 -31 0 -25 -44 -70
-94 -94 -43 -21 -61 -24 -95 -19 -81 13 -61 60 51 123 40 22 79 41 86 41 6 0
21 -9 32 -20z"/>
<path d="M4528 4883 c-37 -6 -35 -18 7 -45 19 -13 37 -31 41 -40 3 -11 15 -18
30 -18 14 0 44 -10 67 -22 23 -12 59 -25 80 -28 l38 -8 -7 32 c-3 17 -7 31 -8
32 0 0 -37 21 -81 47 -44 26 -87 47 -96 47 -10 0 -23 2 -31 3 -7 2 -25 2 -40
0z"/>
<path d="M4290 4677 c0 -7 120 -77 131 -77 14 0 11 26 -5 39 -8 7 -31 15 -53
18 -21 3 -46 10 -55 15 -10 5 -18 7 -18 5z"/>
<path d="M5000 4652 c0 -15 45 -51 67 -55 12 -2 30 -10 40 -19 33 -29 90 -46
152 -45 34 1 61 3 61 4 0 8 -127 83 -142 83 -10 0 -36 9 -58 20 -39 20 -120
28 -120 12z"/>
<path d="M23410 4245 l0 -375 510 0 c281 0 510 -2 510 -4 0 -2 -22 -45 -49
-97 -60 -114 -103 -236 -133 -372 -20 -89 -22 -131 -22 -332 0 -201 2 -243 22
-332 109 -501 404 -882 857 -1108 586 -293 1328 -256 1865 93 400 259 650 660
710 1137 20 152 8 434 -23 565 -39 163 -108 337 -169 423 l-19 27 530 0 531 0
0 375 0 375 -2560 0 -2560 0 0 -375z m2778 -330 c34 -8 98 -29 142 -45 232
-90 419 -296 490 -540 31 -107 39 -335 15 -451 -66 -330 -297 -567 -632 -651
-119 -30 -359 -32 -477 -5 -321 76 -551 289 -638 594 -19 67 -23 102 -23 248
0 202 12 258 87 414 44 91 61 116 141 196 137 138 288 216 481 250 100 18 323
13 414 -10z"/>
<path d="M11662 4476 c-34 -32 -36 -36 -21 -51 13 -13 26 -15 63 -10 39 6 49
13 63 38 14 28 14 31 -3 44 -30 22 -62 15 -102 -21z"/>
<path d="M12909 4413 c-8 -22 -7 -30 7 -40 27 -20 43 -16 50 12 13 50 -39 75
-57 28z"/>
<path d="M13708 4417 c-36 -16 -98 -74 -98 -91 0 -22 29 -27 58 -12 30 16 60
46 87 89 17 26 17 27 -1 27 -11 -1 -31 -6 -46 -13z"/>
<path d="M5610 4414 c1 -25 44 -54 79 -54 21 0 47 35 33 44 -16 10 -112 18
-112 10z"/>
<path d="M12647 4262 c-25 -28 -40 -82 -22 -82 8 0 17 5 20 11 4 5 18 14 32
20 19 7 24 15 21 36 -4 34 -28 41 -51 15z"/>
<path d="M12210 3026 c-66 -17 -116 -51 -152 -104 -17 -26 -36 -50 -42 -54 -6
-4 5 -8 24 -8 48 0 130 40 163 80 28 33 61 90 55 95 -2 1 -23 -3 -48 -9z"/>
</g>
</svg>
